<?xml version="1.0" encoding="UTF-8"?>
<svg width="199px" height="175px" viewBox="0 0 199 175" version="1.1" xmlns="http://www.w3.org/2000/svg" xmlns:xlink="http://www.w3.org/1999/xlink">
    <!-- Generator: Sketch 52.6 (67491) - http://www.bohemiancoding.com/sketch -->
    <title>Illustration/Software/Error-Window-2</title>
    <desc>Created with Sketch.</desc>
    <defs>
        <linearGradient x1="6.07030064%" y1="108.016466%" x2="93.9296994%" y2="-8.01104972%" id="linearGradient-1">
            <stop stop-color="#C1C7D0" offset="0%"></stop>
            <stop stop-color="#FAFBFC" offset="100%"></stop>
        </linearGradient>
        <linearGradient x1="18.3257455%" y1="206.949167%" x2="76.7523892%" y2="-136.759692%" id="linearGradient-2">
            <stop stop-color="#FAFBFC" stop-opacity="0.1" offset="0%"></stop>
            <stop stop-color="#EBECF0" offset="82%"></stop>
        </linearGradient>
        <linearGradient x1="15.6216944%" y1="111.443465%" x2="84.4274313%" y2="34.2459494%" id="linearGradient-3">
            <stop stop-color="#EBECF0" stop-opacity="0.1" offset="0%"></stop>
            <stop stop-color="#EBECF0" offset="100%"></stop>
        </linearGradient>
        <linearGradient x1="82.0048856%" y1="43.9219976%" x2="-1.7244993%" y2="87.7323337%" id="linearGradient-4">
            <stop stop-color="#FFD740" offset="0%"></stop>
            <stop stop-color="#FFAB00" offset="100%"></stop>
        </linearGradient>
    </defs>
    <g id="404-Errors" stroke="none" stroke-width="1" fill="none" fill-rule="evenodd">
        <g id="503" transform="translate(-562.000000, -190.000000)">
            <g id="Illustration/Software/Error-Window-2" transform="translate(562.000000, 190.000000)">
                <g transform="translate(0.606707, 0.000000)" id="Software-Error-Window-2">
                    <g>
                        <g id="Layer_2">
                            <g id="Software">
                                <rect id="_Rectangle_2" fill="url(#linearGradient-1)" fill-rule="nonzero" x="0" y="25.7419355" width="197.228415" height="148.887097"></rect>
                                <rect id="Rectangle-path" fill="#EBECF0" fill-rule="nonzero" x="0" y="25.7419355" width="197.228415" height="15.8629032"></rect>
                                <path d="M197.463008,55.3870968 C141.500325,50.5483871 109.409553,56.1209677 90.2618699,62.4112903 C86.4921951,63.6451613 81.6385366,65.4354839 73.6623577,67.5322581 C44.8397154,75.1209677 18.1688618,75.5483871 0.234593496,74.733871 L0.234593496,41.6048387 L197.463008,41.6048387 L197.463008,55.3870968 Z" id="Shape" fill="url(#linearGradient-2)" fill-rule="nonzero" style="mix-blend-mode: multiply;"></path>
                                <ellipse id="Oval" fill="#253858" fill-rule="nonzero" cx="12.6923171" cy="33.6209677" rx="4.13369919" ry="4.12096774"></ellipse>
                                <ellipse id="Oval" fill="#A5ADBA" fill-rule="nonzero" cx="26.1854878" cy="33.6209677" rx="4.13369919" ry="4.12096774"></ellipse>
                                <ellipse id="Oval" fill="#0065FF" fill-rule="nonzero" cx="39.6786585" cy="33.6209677" rx="4.13369919" ry="4.12096774"></ellipse>
                                <rect id="_Rectangle_3" fill="#FFFFFF" fill-rule="nonzero" x="29.6073171" y="65.7983871" width="138.01378" height="85.7903226" rx="5.07"></rect>
                                <path d="M95.4552846,64.3790323 L133.734472,130.508065 C135.275082,133.197859 135.268379,136.500609 133.716862,139.184166 C132.165346,141.867723 129.302029,143.52906 126.195122,143.548387 L49.636748,143.548387 C46.5165779,143.545401 43.634385,141.885267 42.0734331,139.19194 C40.5124812,136.498614 40.509283,133.180183 42.0650407,130.483871 L80.3442276,64.3548387 C81.9151548,61.6771052 84.7950713,60.0332908 87.9067294,60.0382727 C91.0183875,60.0432546 93.8929929,61.6962823 95.4552846,64.3790323 L95.4552846,64.3790323 Z" id="_Polygon_2" fill="url(#linearGradient-3)" fill-rule="nonzero" style="mix-blend-mode: multiply;"></path>
                                <path d="M108.236585,57.9193548 L146.515772,124.048387 C148.063286,126.743686 148.055663,130.056189 146.495762,132.744381 C144.93586,135.432573 142.059245,137.090499 138.944065,137.096774 L62.3776016,137.096774 C59.2549319,137.095444 56.3699398,135.434206 54.8084607,132.738306 C53.2469816,130.042407 53.2460034,126.721007 54.8058943,124.024194 L93.0850813,57.8951613 C94.6508077,55.1977979 97.541781,53.5388199 100.667844,53.5438116 C103.793907,53.5488032 106.679534,55.2170051 108.236585,57.9193548 Z" id="_Polygon_3" fill="url(#linearGradient-4)" fill-rule="nonzero"></path>
                                <path d="M103.876382,105.91129 L105.534715,80.4354839 C105.638015,78.9749956 105.127693,77.5374197 104.125888,76.4668169 C103.124083,75.396214 101.720954,74.7889351 100.252317,74.7903226 L100.252317,74.7903226 C98.78368,74.7889351 97.3805508,75.396214 96.3787458,76.4668169 C95.3769408,77.5374197 94.8666194,78.9749956 94.9699187,80.4354839 L96.628252,105.91129 C96.7519194,107.81612 98.337605,109.298121 100.252317,109.298387 L100.252317,109.298387 C102.167029,109.298121 103.752715,107.81612 103.876382,105.91129 Z" id="Shape" fill="#253858" fill-rule="nonzero"></path>
                                <path d="M94.7515041,119.435484 C94.7383772,120.98135 95.3813157,122.460723 96.5216006,123.508398 C97.6618855,124.556072 99.1932604,125.074422 100.737683,124.935484 C103.748505,124.713716 106.034866,122.142456 105.894598,119.135976 C105.754329,116.129496 103.238431,113.780909 100.219959,113.83871 C97.1632984,113.887345 94.7199658,116.388011 94.7515041,119.435484 L94.7515041,119.435484 Z" id="Shape" fill="#253858" fill-rule="nonzero"></path>
                                <path d="M108.535894,22.3870968 L102.63061,1.16129032 C102.571588,0.942522801 102.368213,0.793864412 102.141178,0.803536875 C101.914143,0.813209338 101.724231,0.978623094 101.684146,1.2016129 L97.9710976,21.1370968 L93.3520325,20.2822581 C93.1872119,20.2510747 93.0179239,20.3069545 92.9043392,20.4300359 C92.7907546,20.5531173 92.7489793,20.7259474 92.7938618,20.8870968 L98.6910569,42.1209677 C98.7500787,42.3397353 98.9534538,42.4883937 99.1804887,42.4787212 C99.4075236,42.4690487 99.5974354,42.303635 99.6375203,42.0806452 L103.350569,22.1451613 L107.969634,23 C108.137523,23.0358209 108.311904,22.9805525 108.42822,22.8546549 C108.544537,22.7287573 108.585481,22.5509652 108.535894,22.3870968 Z" id="Shape" fill="#FFC400" fill-rule="nonzero"></path>
                                <path d="M87.3658537,34.0241935 L78.6858943,27.2258065 C78.6092737,27.1583796 78.4951225,27.1556223 78.4153162,27.2192707 C78.3355099,27.2829191 78.3131507,27.3945484 78.3623171,27.483871 L82.7629675,36.5645161 L80.6435366,37.5887097 C80.5785931,37.6261999 80.5386071,37.6953467 80.5386071,37.7701613 C80.5386071,37.8449759 80.5785931,37.9141227 80.6435366,37.9516129 L89.3073171,44.7419355 C89.3839377,44.8093624 89.4980889,44.8121197 89.5778952,44.7484713 C89.6577015,44.6848229 89.6800607,44.5731936 89.6308943,44.483871 L85.1897967,35.4032258 L87.3092276,34.3790323 C87.3776323,34.3514774 87.4265533,34.290206 87.438145,34.2175688 C87.4497366,34.1449317 87.4223038,34.0715505 87.3658537,34.0241935 L87.3658537,34.0241935 Z" id="Shape" fill="#FFAB00" fill-rule="nonzero"></path>
                                <path d="M127.21439,29.8387097 C126.284106,31.1048387 118.453537,25.3870968 117.507073,26.6532258 C116.56061,27.9193548 124.407358,33.6370968 123.477073,34.9032258 C122.546789,36.1693548 114.71622,30.4516129 113.769756,31.7258065 C112.823293,33 120.670041,38.7096774 119.739756,39.9758065 C118.809472,41.2419355 110.970813,35.5322581 110.032439,36.7983871 C109.094065,38.0645161 116.932724,43.7822581 116.002439,45.0564516" id="Shape" stroke="#344563" stroke-width="2" stroke-linecap="round"></path>
                                <path d="M131.04878,51.7903226 C129.883902,52.8467742 125.426626,47.9919355 124.269837,49.0564516 C123.113049,50.1209677 127.562236,54.9758065 126.397358,56.0322581 C125.23248,57.0887097 120.775203,52.233871 119.618415,53.2983871 C119.076423,53.7903226 119.747846,55.0967742 120.508252,56.4677419" id="Shape" stroke="#5E6C84" stroke-width="2" stroke-linecap="round"></path>
                                <path d="M71.1869919,51.6854839 C72.635,52.2983871 75.2317073,46.2258065 76.6554472,46.8467742 C78.079187,47.4677419 75.5471951,53.5241935 76.9952033,54.1048387 C78.4432114,54.6854839 81.0399187,48.6451613 82.4636585,49.266129 C83.1350813,49.5483871 82.9490244,51.0080645 82.698252,52.5483871" id="Shape" stroke="#5E6C84" stroke-width="2" stroke-linecap="round"></path>
                            </g>
                        </g>
                    </g>
                </g>
            </g>
        </g>
    </g>
</svg>